<?xml version="1.0" standalone="no"?>
<!DOCTYPE svg PUBLIC "-//W3C//DTD SVG 20010904//EN"
 "http://www.w3.org/TR/2001/REC-SVG-20010904/DTD/svg10.dtd">
<svg version="1.0" xmlns="http://www.w3.org/2000/svg"
 width="672.000000pt" height="672.000000pt" viewBox="0 0 672.000000 672.000000"
 preserveAspectRatio="xMidYMid meet">
<metadata>
Created by potrace 1.11, written by Peter Selinger 2001-2013
</metadata>
<g transform="translate(0.000000,672.000000) scale(0.100000,-0.100000)"
fill="#000000" stroke="none">
<path d="M2845 4938 c-16 -6 -64 -22 -105 -35 -107 -35 -182 -74 -285 -148
-125 -89 -247 -204 -306 -288 -27 -39 -49 -66 -49 -61 0 21 42 159 52 171 6 7
7 13 2 13 -8 0 -53 -61 -63 -85 -2 -5 -14 -26 -26 -45 -59 -96 -128 -323 -152
-503 -8 -63 -9 -266 -1 -322 17 -116 71 -280 134 -410 l44 -90 -48 50 c-69 73
-104 119 -170 232 -57 96 -111 220 -132 301 l-10 37 5 -40 c9 -83 18 -121 45
-206 42 -126 161 -355 228 -438 67 -83 68 -86 3 -31 -69 60 -172 179 -215 250
-16 27 -25 35 -20 20 7 -27 86 -179 114 -220 9 -14 36 -54 60 -90 107 -158
442 -530 600 -665 200 -171 376 -280 528 -330 28 -9 52 -19 52 -22 0 -10 -125
5 -185 22 -86 24 -196 63 -305 107 -52 21 -97 38 -100 38 -5 -1 69 -43 80 -45
3 -1 34 -15 70 -32 180 -85 227 -106 313 -142 175 -72 548 -185 674 -204 12
-2 26 -7 30 -11 5 -5 -53 -6 -127 -3 -129 5 -182 11 -203 24 -6 3 -7 2 -4 -4
8 -13 140 -57 230 -78 214 -49 592 -63 807 -30 98 16 253 61 319 93 56 27 97
58 171 131 154 151 216 267 244 458 15 104 14 219 -3 236 -6 6 -11 18 -11 28
0 20 -38 114 -62 154 l-19 30 6 -27 c3 -16 8 -40 11 -55 4 -23 -5 -16 -58 42
-167 187 -368 348 -558 449 l-46 24 64 -65 c70 -73 90 -103 70 -103 -35 0
-369 177 -494 261 -123 83 -199 129 -213 129 -2 0 7 -10 20 -23 44 -42 120
-147 114 -157 -12 -20 -106 15 -309 117 -196 98 -285 161 -460 325 -28 26 -52
46 -54 44 -4 -5 53 -102 84 -143 14 -18 22 -33 19 -33 -3 0 -34 19 -68 42
-240 161 -404 322 -477 468 -55 108 -102 285 -89 335 8 28 7 29 -7 10 -13 -17
-50 -125 -58 -167 -11 -60 -31 -128 -37 -128 -14 0 -15 86 -2 150 18 87 81
215 138 278 50 56 150 126 233 163 28 13 52 27 52 30 0 7 -33 5 -90 -6 -29 -5
-32 -4 -17 5 20 13 190 56 258 66 24 3 51 7 59 8 158 24 192 26 426 30 117 3
228 1 248 -4 36 -8 52 4 19 14 -117 33 -166 45 -208 51 -27 3 -65 9 -83 11
-187 29 -445 24 -632 -11 -40 -8 -149 -38 -180 -51 l-35 -14 30 25 c17 14 64
43 105 65 72 38 78 49 15 28z"/>
<path d="M1907 4442 c-97 -204 -137 -355 -122 -464 4 -27 9 -48 10 -46 2 2 7
26 10 53 4 28 8 57 10 65 2 8 7 35 10 60 8 58 65 248 105 346 17 42 29 78 27
80 -2 2 -24 -40 -50 -94z"/>
<path d="M2706 4415 c11 -68 53 -185 100 -284 40 -81 60 -108 155 -205 109
-111 142 -136 72 -53 -84 98 -119 143 -156 199 -39 61 -125 231 -132 264 -2
11 -13 42 -24 69 l-21 50 6 -40z"/>
<path d="M1746 4215 c-9 -26 -7 -32 5 -12 6 10 9 21 6 23 -2 3 -7 -2 -11 -11z"/>
<path d="M1726 4169 c-42 -126 -43 -130 -61 -223 -7 -39 -11 -77 -10 -85 2 -9
4 -27 5 -41 2 -23 6 -2 23 115 3 22 11 63 17 90 7 28 13 55 14 60 1 6 8 27 15
48 7 21 10 41 7 44 -3 3 -8 0 -10 -8z"/>
<path d="M3290 3744 c0 -4 37 -45 83 -91 166 -170 281 -242 355 -224 13 3
-137 181 -153 181 -4 0 -2 -7 5 -15 7 -9 10 -18 7 -21 -14 -15 -213 98 -274
156 -13 11 -23 18 -23 14z"/>
<path d="M3695 3590 c11 -13 31 -34 45 -46 14 -12 36 -32 50 -44 14 -12 45
-35 70 -52 45 -29 31 -16 -45 45 -22 18 -62 52 -90 77 -27 25 -41 34 -30 20z"/>
<path d="M3928 3467 c42 -45 318 -235 327 -225 3 3 -39 34 -92 69 -54 35 -134
90 -178 123 -44 32 -69 47 -57 33z"/>
<path d="M1960 2806 c0 -39 321 -395 440 -488 90 -71 105 -71 35 -2 -38 39
-110 115 -160 169 -119 131 -315 330 -315 321z"/>
<path d="M2209 2190 c39 -33 362 -236 447 -280 99 -52 123 -74 108 -98 -9 -13
-25 -17 -75 -16 -70 1 -57 -9 36 -27 28 -6 55 -12 60 -13 13 -4 72 -15 110
-21 73 -12 203 -17 208 -8 3 5 -2 23 -12 39 -20 33 -127 91 -217 117 -123 36
-307 116 -429 186 -158 91 -266 146 -236 121z"/>
</g>
</svg>
